<svg viewBox="0 0 21 22" fill="current" xmlns="http://www.w3.org/2000/svg">
<path fill-rule="evenodd" clip-rule="evenodd" d="M20.5684 20.3337C20.5684 20.7848 20.2027 21.1504 19.7517 21.1504L11.585 21.1504C11.134 21.1504 10.7684 20.7848 10.7684 20.3337C10.7684 19.8827 11.134 19.5171 11.585 19.5171L18.935 19.5171L18.935 2.48372L11.585 2.48373C11.134 2.48373 10.7684 2.11809 10.7684 1.66706C10.7684 1.21603 11.134 0.85039 11.585 0.85039L19.7517 0.85039C20.2027 0.85039 20.5684 1.21603 20.5684 1.66706L20.5684 20.3337ZM6.32916 15.6612C6.01024 15.9801 5.49315 15.9801 5.17422 15.6612L1.09089 11.5779C0.771962 11.2589 0.771962 10.7418 1.09089 10.4229L5.17422 6.33959C5.49315 6.02066 6.01024 6.02066 6.32916 6.33959C6.64809 6.65852 6.64809 7.1756 6.32916 7.49453L3.63997 10.1837L12.7517 10.1837C13.2027 10.1837 13.5684 10.5494 13.5684 11.0004C13.5684 11.4514 13.2027 11.8171 12.7517 11.8171L3.63997 11.8171L6.32916 14.5063C6.64809 14.8252 6.64809 15.3423 6.32916 15.6612Z" fill="current"/>
</svg>