<svg width="24" height="24" viewBox="0 0 24 24" fill="current" xmlns="http://www.w3.org/2000/svg">
<path fill-rule="evenodd" clip-rule="evenodd" d="M11.3383 0.366692C10.3691 0.505687 9.65201 0.710689 8.95967 1.04675C7.97984 1.52231 7.04608 2.29998 6.39184 3.18536L6.21153 3.42946L5.62664 3.45532C4.21673 3.51773 3.06173 4.00747 2.06068 4.96748C0.560795 6.40583 0.0236321 8.59329 0.685356 10.568C0.961033 11.3907 1.35726 12.0153 2.02619 12.6819C2.67532 13.3288 3.2577 13.6929 4.08692 13.9704C4.3146 14.0466 4.58151 14.1226 4.68007 14.1394C4.77862 14.156 4.8952 14.1796 4.93913 14.1916C5.01433 14.2122 5.01907 14.4293 5.02049 17.9168C5.02131 19.9536 5.03983 21.7585 5.06164 21.9277C5.16704 22.745 5.78597 23.4396 6.5743 23.6254C7.01405 23.729 16.9857 23.729 17.4254 23.6254C18.2138 23.4396 18.8327 22.745 18.9381 21.9277C18.9599 21.7585 18.9784 19.9536 18.9792 17.9168C18.9807 14.4293 18.9854 14.2122 19.0606 14.1916C19.1045 14.1796 19.2211 14.156 19.3197 14.1394C19.5901 14.0935 20.2918 13.8495 20.5996 13.6944C21.3503 13.3159 22.2061 12.5638 22.663 11.8809C24.1371 9.67788 23.8342 6.78486 21.9391 4.96748C20.938 4.00747 19.783 3.51773 18.3731 3.45532L17.7882 3.42946L17.6079 3.18536C16.5765 1.78948 15.0455 0.818847 13.3277 0.471748C12.9061 0.386535 11.659 0.320664 11.3383 0.366692ZM12.7557 1.9397C14.2649 2.14958 15.6791 3.0491 16.5312 4.34125C16.9856 5.03016 16.9537 5.01551 17.9998 5.01574C19.0134 5.01601 19.2085 5.05552 19.9161 5.40426C21.0977 5.98651 21.9225 7.18122 22.0288 8.46465C22.1857 10.3577 21.0928 11.9864 19.2773 12.5652C18.6359 12.7696 17.4762 12.7345 16.8904 12.4929L16.7392 12.4305L17.1299 11.9918C17.8331 11.2021 18.2735 10.4499 18.595 9.48921C18.7335 9.07524 18.7487 8.9877 18.711 8.81974C18.6527 8.56031 18.5364 8.41169 18.2954 8.28857C18.0444 8.16034 17.8788 8.15907 17.6219 8.28342C17.3874 8.39691 17.2805 8.55165 17.1536 8.96142C16.8309 10.0035 16.0608 11.0524 15.132 11.7149C14.2147 12.3691 13.165 12.6988 11.9999 12.6988C10.8347 12.6988 9.78506 12.3691 8.86778 11.7149C7.93891 11.0524 7.16882 10.0035 6.84615 8.96142C6.71922 8.55165 6.61236 8.39691 6.37784 8.28342C6.12096 8.15907 5.95533 8.16034 5.70429 8.28857C5.46334 8.41169 5.34704 8.56031 5.28873 8.81974C5.25099 8.9877 5.26619 9.07524 5.40471 9.48921C5.72624 10.4499 6.16663 11.2021 6.86983 11.9918L7.26058 12.4305L7.10932 12.4929C6.52357 12.7345 5.36383 12.7696 4.72241 12.5652C3.1868 12.0756 2.10284 10.7629 1.97226 9.23462C1.90231 8.41566 2.0339 7.74587 2.40297 7.04255C2.78026 6.32367 3.3552 5.76317 4.08363 5.40426C4.79126 5.05552 4.98631 5.01601 5.99996 5.01574C7.04604 5.01551 7.01415 5.03016 7.4685 4.34125C7.8263 3.79873 8.40366 3.20416 8.90989 2.85692C9.56094 2.41033 10.4715 2.04654 11.2014 1.94139C11.5989 1.88409 12.35 1.88332 12.7557 1.9397ZM8.94169 13.5453C10.7962 14.4849 13.2029 14.4852 15.0564 13.5461L15.2788 13.4335L15.7267 13.6578C16.1895 13.8894 16.7101 14.0716 17.1681 14.1622L17.4315 14.2143L17.419 18.0464L17.4066 21.8785L17.2576 22.0116L17.1086 22.1447H11.9999H6.89114L6.74212 22.0116L6.5931 21.8785L6.58069 18.0464L6.56828 14.2143L6.83164 14.1619C7.29959 14.0689 7.82936 13.8825 8.26564 13.6575C8.50012 13.5365 8.69773 13.4363 8.70484 13.4348C8.71196 13.4332 8.81855 13.4829 8.94169 13.5453Z" fill="#current"/>
</svg>