<svg width="20" height="24" viewBox="0 0 20 24" fill="current" xmlns="http://www.w3.org/2000/svg">
<path fill-rule="evenodd" clip-rule="evenodd" d="M9.24252 0.326242C6.9245 0.641381 5.01885 2.21667 4.29711 4.41429C4.06564 5.11906 3.9867 5.69511 4.01645 6.46255C4.06399 7.69093 4.35921 8.60462 5.03716 9.62175C5.31677 10.0413 5.86456 10.6406 6.21759 10.913C6.33145 11.0009 6.42535 11.0857 6.42631 11.1014C6.42727 11.1172 6.31991 11.1757 6.18779 11.2315C3.04465 12.559 0.795233 15.3807 0.227443 18.7083C0.124886 19.3094 0.0714346 20.3117 0.119258 20.7379C0.244833 21.8574 0.922639 22.7999 1.9661 23.306C2.71424 23.6689 2.22956 23.6482 9.99762 23.6482C17.7657 23.6482 17.281 23.6689 18.0291 23.306C18.6804 22.9901 19.1381 22.5616 19.4918 21.9365C19.8363 21.3276 19.9392 20.747 19.8783 19.7544C19.778 18.1213 19.3087 16.6221 18.4574 15.2157C17.4084 13.4826 15.7277 12.0425 13.8074 11.2315C13.6753 11.1757 13.568 11.1172 13.5689 11.1014C13.5699 11.0857 13.6638 11.0009 13.7777 10.913C14.1307 10.6406 14.6785 10.0413 14.9581 9.62175C15.636 8.60462 15.9312 7.69093 15.9788 6.46255C16.0603 4.35764 15.0703 2.45754 13.266 1.25596C12.6563 0.849983 11.8809 0.535757 11.1304 0.390648C10.6678 0.301182 9.67576 0.267359 9.24252 0.326242ZM10.9521 2.19932C12.5261 2.55833 13.7003 3.73982 14.1003 5.36705C14.2158 5.83666 14.2053 6.80417 14.0797 7.26802C13.7073 8.64388 12.781 9.6878 11.494 10.1821C9.41326 10.9813 7.01515 9.97181 6.14354 7.92988C5.89481 7.34726 5.82127 6.97881 5.81871 6.30279C5.81555 5.47825 5.95055 4.92616 6.32023 4.25192C7.221 2.60895 9.09909 1.77669 10.9521 2.19932ZM11.1591 12.3543C11.7758 12.4501 12.2648 12.5739 12.7782 12.764C15.8614 13.9059 17.9349 16.7249 18.0835 19.9767C18.1156 20.6791 18.0599 20.9128 17.7743 21.2731C17.5555 21.5492 17.253 21.7318 16.8875 21.8082C16.4835 21.8927 3.51172 21.8927 3.10772 21.8082C2.74225 21.7318 2.4397 21.5492 2.22091 21.2731C1.9353 20.9128 1.8796 20.6791 1.91173 19.9767C2.01332 17.7531 2.99203 15.7367 4.68903 14.2548C5.57479 13.4812 6.82858 12.8161 7.93825 12.531C8.90144 12.2835 10.2332 12.2105 11.1591 12.3543Z" fill="#current"/>
</svg>