<svg width="28" height="22" viewBox="0 0 28 22" fill="current" xmlns="http://www.w3.org/2000/svg">
<path d="M27.0927 16.0397V8.98107L27.5328 8.74876C27.8189 8.60001 27.9992 8.3051 28.0027 7.98225C28.0062 7.66023 27.8316 7.36185 27.549 7.20657L14.3846 0.162818C14.1213 0.0184433 13.8027 0.019291 13.5376 0.165416L0.445419 7.21792C0.166705 7.37325 -0.00564305 7.6681 -0.00389305 7.98794C-0.00214305 8.30778 0.173732 8.60044 0.455947 8.75275L6.20863 11.8148C6.13645 11.9421 6.09182 12.0873 6.09182 12.244V19.6482C6.09185 19.7717 6.11799 19.8937 6.1685 20.0064C6.21902 20.119 6.29278 20.2197 6.38495 20.3018C6.57485 20.4703 8.3931 21.9451 13.9524 21.9451C19.492 21.9451 21.3593 20.5512 21.554 20.3924C21.7574 20.2266 21.8751 19.9781 21.8751 19.7147V12.1206C21.8751 11.9976 21.8493 11.8808 21.8038 11.7749L25.3427 9.90548V16.0445C24.8238 16.3481 24.4721 16.9051 24.4721 17.5491C24.4721 18.5155 25.2557 19.2991 26.2221 19.2991C27.1885 19.2991 27.9721 18.5155 27.9721 17.5491C27.9721 16.9011 27.6155 16.342 27.0927 16.0397H27.0927ZM20.125 19.2133C19.4373 19.5441 17.6173 20.1951 13.9524 20.1951C10.2642 20.1951 8.48536 19.5021 7.84179 19.1687V12.6845L13.524 15.7094C13.6516 15.7783 13.7943 15.8144 13.9392 15.8144C14.0804 15.8145 14.2195 15.7801 14.3444 15.7142L20.125 12.6609V19.2133ZM13.9462 13.9481L2.69154 7.97178L13.9659 1.92947L25.2753 7.95428L13.9462 13.9481Z" fill="current"/>
</svg>