<svg viewBox="0 0 24 24" fill="current" xmlns="http://www.w3.org/2000/svg">
<path fill-rule="evenodd" clip-rule="evenodd" d="M5.63826 0.409974C3.59013 0.69596 1.71908 2.10641 0.894341 3.98608C-0.256767 6.60964 0.457194 9.49743 2.71274 11.3413L2.91258 11.5047L2.5639 14.1009C2.37214 15.5288 2.1951 16.9333 2.17051 17.2218C2.02761 18.8992 2.25164 20.709 2.80823 22.3741C3.11575 23.294 3.21787 23.487 3.45896 23.6037L3.66428 23.7031L11.3241 23.6875C17.2448 23.6754 19.041 23.6589 19.2349 23.6148C20.0379 23.4321 20.894 23.0609 21.4358 22.6604C22.5575 21.8312 23.3711 20.5411 23.6117 19.2096C23.6966 18.7404 23.6734 17.5494 23.5695 17.0396C23.4537 16.4714 23.1979 15.8346 22.8816 15.3273C22.5732 14.8326 21.9173 14.1338 21.4375 13.7886C19.5116 12.4032 16.8568 12.4044 14.9297 13.7916C14.318 14.2319 13.678 14.9747 13.3502 15.6249C13.2932 15.7378 13.2432 15.8345 13.2389 15.8398C13.2346 15.8451 13.0781 15.8009 12.8909 15.7416C12.0509 15.4755 11.0415 15.4224 10.2547 15.6027C10.071 15.6449 9.91519 15.6722 9.90843 15.6635C9.90168 15.6549 9.84273 15.3706 9.77744 15.0318C9.6798 14.5252 9.20136 12.412 9.12603 12.1545C9.11207 12.1068 9.16176 12.0564 9.27664 12.0018C9.72355 11.7895 10.3843 11.2996 10.8447 10.8392C11.9448 9.73902 12.5558 8.38415 12.6474 6.84184C12.8153 4.013 10.9499 1.39053 8.19744 0.585864C7.40678 0.35472 6.48686 0.291528 5.63826 0.409974ZM7.15798 1.75791C9.04974 2.04075 10.5785 3.37346 11.1056 5.19929C11.8325 7.71723 10.3518 10.365 7.80551 11.1001C5.28757 11.827 2.63983 10.3463 1.90469 7.79999C1.03911 4.80174 3.31688 1.75221 6.45077 1.71357C6.65928 1.71097 6.97753 1.73095 7.15798 1.75791ZM6.09945 4.49582C5.06309 4.69931 4.31696 5.76624 4.4882 6.79977C4.63653 7.69482 5.30997 8.36827 6.20503 8.5166C7.52436 8.7352 8.74072 7.51884 8.52212 6.19951C8.32944 5.03695 7.24116 4.27161 6.09945 4.49582ZM6.82573 5.90709C7.02817 6.01039 7.18955 6.27324 7.18955 6.49964C7.18955 6.84681 6.85233 7.18404 6.50516 7.18404C6.15799 7.18404 5.82076 6.84681 5.82076 6.49964C5.82076 6.28022 5.98223 6.01103 6.17487 5.90932C6.39502 5.79311 6.60093 5.79243 6.82573 5.90709ZM4.79417 12.4052C5.25276 12.5423 6.00943 12.6572 6.45953 12.658C6.74794 12.6585 7.35773 12.6004 7.66051 12.5436L7.81021 12.5156L8.11604 13.8535C8.41786 15.1738 8.6225 16.1728 8.59517 16.1925C8.58746 16.1981 8.43415 16.3 8.25447 16.419C7.85241 16.6852 7.39172 17.0971 7.30211 17.2704C7.13503 17.5935 7.27492 17.9986 7.61383 18.1732C7.93171 18.3368 8.10975 18.2877 8.55369 17.9137C9.00124 17.5367 9.31762 17.344 9.76092 17.1786C10.4053 16.9383 10.7237 16.8792 11.3416 16.8854C12.0161 16.8921 12.4343 16.9879 13.038 17.2743C13.3848 17.4388 13.4634 17.4594 13.668 17.4397C13.9748 17.4102 14.1629 17.2331 14.3004 16.8442C14.7431 15.5921 15.7212 14.6686 17.022 14.2744C17.3893 14.1631 17.5074 14.1496 18.1399 14.146C18.7451 14.1427 18.903 14.1573 19.2349 14.2476C20.005 14.4573 20.5997 14.7949 21.124 15.32C21.8121 16.0091 22.1864 16.7844 22.2991 17.7537C22.5355 19.7875 21.2711 21.6314 19.244 22.2089L18.8927 22.309L4.232 22.3339L4.09435 21.9109C3.72628 20.7796 3.55386 19.8143 3.50946 18.637C3.47529 17.7293 3.52069 17.2323 3.88219 14.5575C4.04498 13.3529 4.17821 12.3381 4.17821 12.3026C4.17821 12.2267 4.22037 12.2337 4.79417 12.4052Z" fill="current"/>
<path fill-rule="evenodd" clip-rule="evenodd" d="M5.62314 0.301649C6.48644 0.181151 7.42201 0.245219 8.22814 0.480883C11.0287 1.29961 12.9276 3.96769 12.7566 6.84831C12.6634 8.41755 12.0409 9.79757 10.922 10.9165C10.4554 11.3831 9.78471 11.8815 9.32359 12.1006C9.27943 12.1216 9.25297 12.1387 9.23852 12.1506C9.33478 12.5055 9.78981 14.5181 9.88484 15.0111C9.91742 15.1801 9.94837 15.3353 9.97199 15.4492C9.97961 15.486 9.98643 15.5182 9.99226 15.5452C9.9936 15.5449 9.99494 15.5447 9.99631 15.5445C10.0567 15.5338 10.1397 15.5169 10.2303 15.4961C11.0378 15.311 12.0671 15.3659 12.9239 15.6373C13.0167 15.6667 13.1015 15.6922 13.1632 15.7096C13.1696 15.7114 13.1758 15.7132 13.1816 15.7148C13.2011 15.6772 13.226 15.6282 13.2525 15.5757C13.5885 14.9092 14.2404 14.153 14.8658 13.7028C16.831 12.2882 19.5373 12.287 21.5014 13.6998C21.9926 14.0532 22.6584 14.7624 22.9744 15.2694C23.2974 15.7875 23.5582 16.4364 23.6767 17.0177C23.7307 17.2826 23.7625 17.7159 23.7707 18.1377C23.7789 18.5588 23.7638 18.9831 23.7194 19.2291C23.4736 20.5889 22.6442 21.9031 21.5008 22.7483C20.9445 23.1596 20.0737 23.5362 19.2592 23.7214C19.2247 23.7293 19.1664 23.7346 19.0886 23.7393C19.0077 23.7441 18.8972 23.7484 18.7527 23.7524C18.4634 23.7604 18.0349 23.7669 17.4281 23.7725C16.2143 23.7837 14.2847 23.7908 11.3244 23.7968L3.63929 23.8125L3.4113 23.7021C3.2666 23.6321 3.16504 23.5363 3.06183 23.3413C2.96278 23.1541 2.85769 22.867 2.7045 22.4087C2.14338 20.7302 1.91731 18.9054 2.06153 17.2125C2.08641 16.9206 2.26392 15.5129 2.4555 14.0863L2.79605 11.5507L2.64351 11.426C0.350864 9.55177 -0.377118 6.61171 0.794183 3.94213C1.63432 2.02738 3.53776 0.592836 5.62314 0.301649ZM9.99472 15.5963C9.99466 15.5962 9.99478 15.5964 9.99472 15.5963V15.5963ZM8.16675 0.690844C7.39156 0.464222 6.48728 0.401904 5.65338 0.518299C3.64251 0.799083 1.80385 2.18543 0.9945 4.03002C-0.136418 6.60757 0.563526 9.44308 2.78196 11.2566L3.02912 11.4587L2.67231 14.1155C2.48036 15.5447 2.3038 16.9459 2.27949 17.2311C2.13791 18.8929 2.35989 20.6879 2.91197 22.3394C3.0663 22.8011 3.16603 23.0705 3.25518 23.2389C3.34019 23.3996 3.41023 23.4586 3.50662 23.5052L3.68926 23.5937L11.3239 23.5781C14.2843 23.5721 16.2131 23.5649 17.4261 23.5538C18.0326 23.5482 18.4595 23.5416 18.7466 23.5337C18.8903 23.5298 18.9981 23.5255 19.0757 23.5209C19.1564 23.5161 19.1967 23.5113 19.2107 23.5081C20.0021 23.3281 20.8435 22.9622 21.3708 22.5724C22.4709 21.7592 23.2686 20.4932 23.5041 19.1901C23.5445 18.9669 23.5602 18.561 23.552 18.1419C23.5439 17.7234 23.5122 17.3063 23.4623 17.0614C23.3492 16.5064 23.0984 15.8818 22.7888 15.3851C22.488 14.9027 21.842 14.2143 21.3736 13.8774C19.486 12.5195 16.8826 12.5206 14.9936 13.8803C14.3957 14.3107 13.7674 15.0402 13.4478 15.6741C13.4192 15.7309 13.3923 15.7836 13.3719 15.823C13.3617 15.8427 13.3531 15.8592 13.3465 15.8714C13.3433 15.8775 13.3404 15.8829 13.338 15.8872C13.3373 15.8883 13.3366 15.8896 13.3359 15.8908C13.3353 15.8919 13.3346 15.893 13.334 15.8941C13.3337 15.8946 13.3296 15.9017 13.3239 15.9087C13.2969 15.9419 13.2609 15.9473 13.2558 15.9481C13.2453 15.9498 13.2363 15.9497 13.2325 15.9495C13.2242 15.9492 13.2168 15.9481 13.2128 15.9475C13.2038 15.946 13.1936 15.9438 13.1837 15.9414C13.1633 15.9366 13.1358 15.9292 13.1038 15.9201C13.0393 15.9019 12.9522 15.8757 12.8579 15.8458C12.0347 15.5851 11.0452 15.5337 10.2792 15.7093C10.186 15.7307 10.0992 15.7485 10.0341 15.7599C10.0019 15.7656 9.97331 15.77 9.95135 15.7724C9.94083 15.7735 9.92886 15.7745 9.91765 15.7745C9.91248 15.7745 9.90331 15.7743 9.89287 15.7725C9.88769 15.7716 9.87871 15.7698 9.86834 15.7656C9.85938 15.7619 9.83896 15.7524 9.82198 15.7305C9.81083 15.7161 9.80572 15.7016 9.80569 15.7015C9.80407 15.6973 9.80286 15.6935 9.8021 15.6911C9.8005 15.686 9.79898 15.6803 9.79763 15.675C9.79483 15.6642 9.79144 15.6498 9.78762 15.6329C9.77991 15.5988 9.76971 15.5511 9.75779 15.4936C9.73392 15.3785 9.70276 15.2222 9.67004 15.0525C9.57258 14.5468 9.09491 12.4376 9.02106 12.1852C8.99846 12.108 9.03558 12.0441 9.07515 12.0039C9.11358 11.965 9.16835 11.9322 9.22969 11.903C9.66238 11.6974 10.3131 11.216 10.7673 10.7618C11.8487 9.68046 12.4482 8.35073 12.5382 6.83535C12.703 4.0583 10.8711 1.48145 8.16675 0.690844ZM7.14182 1.86609C6.96791 1.8401 6.65558 1.82039 6.45214 1.82293C3.38979 1.86069 1.16442 4.84145 2.00978 7.76965C2.72847 10.259 5.31638 11.7049 7.77517 10.995C10.2645 10.2763 11.7104 7.68842 11.0005 5.22962C10.4854 3.44524 8.99163 2.14265 7.14182 1.86609ZM6.44941 1.6042C6.66299 1.60153 6.98716 1.6218 7.17415 1.64974C9.10786 1.93885 10.6716 3.30167 11.2107 5.16895C11.9547 7.74602 10.4391 10.4536 7.83585 11.2052C5.25877 11.9492 2.55118 10.4335 1.79961 7.83033C0.913808 4.76203 3.24397 1.64373 6.44941 1.6042ZM6.07837 4.38849C7.28195 4.15213 8.42749 4.95958 8.63002 6.18162C8.86088 7.57491 7.58044 8.85535 6.18715 8.6245C5.24592 8.46851 4.53628 7.75888 4.3803 6.81765C4.19926 5.72499 4.98477 4.60323 6.07837 4.38849ZM8.41422 6.21739C8.2314 5.11431 7.20037 4.39108 6.12053 4.60314C5.14142 4.79539 4.43466 5.80749 4.5961 6.78189C4.73678 7.63076 5.37404 8.26801 6.22291 8.40869C7.46829 8.61503 8.62056 7.46276 8.41422 6.21739ZM6.49893 5.931C6.41249 5.9313 6.32326 5.95467 6.22593 6.00605C6.15179 6.04519 6.07652 6.12133 6.01937 6.2166C5.96226 6.31182 5.93014 6.41466 5.93014 6.49963C5.93014 6.63837 5.99838 6.78295 6.11011 6.89468C6.22184 7.00641 6.36642 7.07466 6.50516 7.07466C6.6439 7.07466 6.78848 7.00641 6.90021 6.89468C7.01194 6.78295 7.08018 6.63837 7.08018 6.49963C7.08018 6.41091 7.04791 6.30818 6.99035 6.21443C6.93281 6.1207 6.85561 6.04513 6.77604 6.00452C6.67604 5.95352 6.58545 5.93071 6.49893 5.931ZM6.49818 5.71225C6.62585 5.71182 6.75062 5.746 6.87543 5.80965C6.99829 5.87234 7.10302 5.97985 7.17677 6.09997C7.25051 6.22007 7.29893 6.36196 7.29893 6.49963C7.29893 6.70807 7.19857 6.90568 7.05489 7.04936C6.91121 7.19304 6.7136 7.29341 6.50516 7.29341C6.29673 7.29341 6.09911 7.19304 5.95543 7.04936C5.81176 6.90568 5.71139 6.70807 5.71139 6.49963C5.71139 6.36519 5.76001 6.22373 5.83178 6.10407C5.90353 5.98447 6.00531 5.87516 6.12381 5.8126C6.24662 5.74777 6.37042 5.71269 6.49818 5.71225ZM4.28065 12.3743C4.27664 12.4081 4.27081 12.4553 4.26336 12.5142C4.2483 12.6334 4.22653 12.8014 4.19969 13.0059C4.14601 13.4147 4.07199 13.9697 3.99058 14.5722C3.62887 17.2485 3.585 17.7361 3.61876 18.6329C3.66277 19.8 3.83339 20.7553 4.19836 21.8771L4.31139 22.2243L18.8774 22.1996L19.214 22.1037C21.1919 21.5402 22.4204 19.7446 22.1905 17.7663C22.0806 16.8214 21.7173 16.0689 21.0467 15.3973C20.5368 14.8867 19.9593 14.5582 19.2062 14.3532C18.8885 14.2667 18.7421 14.252 18.1405 14.2554C17.8233 14.2572 17.6416 14.2615 17.494 14.2785C17.3492 14.2951 17.2352 14.3241 17.0538 14.3791C15.7853 14.7634 14.8344 15.6622 14.4035 16.8807C14.3318 17.0837 14.2429 17.2432 14.1227 17.3564C14 17.4719 13.8524 17.5319 13.6785 17.5486C13.5696 17.559 13.4845 17.5597 13.3786 17.5318C13.2786 17.5056 13.1632 17.4547 12.9912 17.3731C12.4019 17.0936 11.9994 17.0013 11.3405 16.9947C10.7375 16.9887 10.4324 17.0449 9.79915 17.2811C9.37 17.4412 9.06431 17.6265 8.62416 17.9973C8.40276 18.1838 8.23093 18.3048 8.0656 18.3505C7.8887 18.3993 7.73507 18.3586 7.56377 18.2704C7.17544 18.0704 7.0079 17.6012 7.20496 17.2201C7.2345 17.163 7.28865 17.0958 7.35188 17.0274C7.41695 16.9571 7.49815 16.8785 7.58823 16.798C7.76829 16.637 7.98813 16.4642 8.19408 16.3278C8.28388 16.2683 8.36708 16.2131 8.42876 16.1721C8.44992 16.1581 8.46853 16.1457 8.484 16.1354C8.48039 16.1076 8.47457 16.0701 8.46648 16.0229C8.44672 15.9076 8.41455 15.7409 8.37189 15.5327C8.28664 15.1165 8.16022 14.5375 8.00942 13.8779L7.72702 12.6424L7.68068 12.6511C7.68069 12.6511 7.68068 12.6511 7.68068 12.6511C7.37163 12.7091 6.75501 12.7679 6.45933 12.7673C5.99804 12.7665 5.2309 12.6499 4.76285 12.51M4.28899 12.1532C4.37988 12.1684 4.54254 12.2158 4.82549 12.3004C5.27462 12.4347 6.02082 12.5478 6.45973 12.5486C6.74086 12.5491 7.34383 12.4918 7.64034 12.4361L7.89341 12.3887L8.22267 13.8291C8.37369 14.4897 8.5005 15.0704 8.58619 15.4888C8.629 15.6978 8.66173 15.8671 8.68208 15.9859C8.69221 16.045 8.69957 16.0933 8.7035 16.1283C8.70541 16.1453 8.70686 16.1622 8.70698 16.1766C8.70704 16.1834 8.70687 16.1939 8.70503 16.2053C8.70413 16.2109 8.70222 16.2205 8.69779 16.2316C8.69403 16.241 8.68371 16.2635 8.65905 16.2813C8.64775 16.2894 8.49176 16.393 8.31487 16.5101C8.11877 16.64 7.90723 16.8062 7.73403 16.9611C7.64748 17.0384 7.57158 17.112 7.5125 17.1759C7.45158 17.2418 7.41454 17.2911 7.39927 17.3206C7.26216 17.5858 7.37441 17.9268 7.66391 18.0759C7.81048 18.1514 7.90481 18.1679 8.00738 18.1396C8.12153 18.1081 8.26069 18.0175 8.48323 17.83C8.93818 17.4468 9.26523 17.2468 9.72269 17.0762C10.3782 16.8316 10.71 16.7697 11.3427 16.776C12.0329 16.7828 12.4667 16.8822 13.0849 17.1755C13.2597 17.2583 13.357 17.3 13.4341 17.3203C13.5053 17.3389 13.5617 17.34 13.6575 17.3308C13.7904 17.3181 13.8903 17.2747 13.9727 17.1971C14.0576 17.1171 14.1316 16.9937 14.1973 16.8078C14.6519 15.5219 15.6571 14.5737 16.9903 14.1697C17.1762 14.1134 17.3049 14.08 17.469 14.0612C17.6304 14.0426 17.8239 14.0384 18.1393 14.0366C18.7481 14.0333 18.9176 14.0479 19.2637 14.1421C20.0507 14.3564 20.6626 14.7031 21.2014 15.2428C21.9069 15.9493 22.2922 16.7473 22.4078 17.7411C22.6506 19.8304 21.3503 21.7225 19.2739 22.3141L18.9081 22.4183L4.15263 22.4434L3.99035 21.9447C3.61918 20.8039 3.44495 19.8286 3.40017 18.6411C3.36558 17.7224 3.41251 17.2161 3.7738 14.5429C3.85518 13.9406 3.92917 13.3859 3.9828 12.9774C4.00962 12.7731 4.03134 12.6055 4.04634 12.4868C4.05385 12.4274 4.05964 12.3805 4.06355 12.3474C4.06551 12.3308 4.06696 12.3181 4.0679 12.3091C4.06852 12.3032 4.06876 12.3003 4.06884 12.2995C4.06896 12.2767 4.07177 12.206 4.13974 12.1674C4.1684 12.1511 4.19795 12.1476 4.21937 12.1471C4.24164 12.1466 4.26528 12.1493 4.28899 12.1532Z" fill="current"/>
</svg>