<svg viewBox="0 0 28 28" fill="none" xmlns="http://www.w3.org/2000/svg">
  <path d="M10.5 7.15545H17.5001V20.8443H10.5V7.15545Z" fill="#FF5F00"/>
  <path d="M10.7046 13.9999C10.7046 11.2669 12.0035 8.84278 14.0001 7.27423C12.5328 6.13351 10.6806 5.44434 8.65997 5.44434C3.87283 5.44434 0 9.27051 0 13.9999C0 18.7292 3.87283 22.5554 8.65986 22.5554C10.6805 22.5554 12.5327 21.8663 14.0001 20.7254C12.0035 19.1807 10.7046 16.7329 10.7046 13.9999Z" fill="#EB001B"/>
  <path d="M28 13.9999C28 18.7292 24.1272 22.5554 19.3402 22.5554C17.3196 22.5554 15.4674 21.8663 14.0001 20.7254C16.0207 19.157 17.2956 16.7329 17.2956 13.9999C17.2956 11.2669 15.9966 8.84278 14.0001 7.27423C15.4673 6.13351 17.3196 5.44434 19.3402 5.44434C24.1272 5.44434 28 9.29433 28 13.9999Z" fill="#F79E1B"/>
</svg>