<svg viewBox="0 0 24 20" fill="current" xmlns="http://www.w3.org/2000/svg">
<path fill-rule="evenodd" clip-rule="evenodd" d="M2.23428 0.135322C1.35774 0.370852 0.670224 1.0677 0.438993 1.95489C0.322419 2.40216 0.322419 17.6042 0.438993 18.0515C0.673232 18.9501 1.36215 19.6408 2.25658 19.8736C2.52489 19.9435 3.6897 19.953 11.9776 19.953C22.2436 19.953 21.6492 19.9698 22.2563 19.6623C22.6219 19.4772 23.081 19.0272 23.2746 18.6641C23.6121 18.0315 23.5936 18.5339 23.5936 10.0032C23.5936 3.20996 23.5838 2.214 23.5142 1.94706C23.2812 1.05324 22.59 0.364789 21.6908 0.13071C21.2502 0.0160284 2.66179 0.0203816 2.23428 0.135322ZM21.5512 1.84446C21.63 1.90322 21.7425 2.01568 21.8013 2.09439C21.9082 2.23747 21.9082 2.24074 21.9082 10.0032C21.9082 17.7656 21.9082 17.7689 21.8013 17.912C21.7425 17.9907 21.63 18.1031 21.5512 18.1619L21.408 18.2688H11.9776H2.54724L2.40401 18.1619C2.32524 18.1031 2.21271 17.9907 2.15391 17.912C2.04718 17.7691 2.04692 17.7528 2.03209 10.1419C2.02395 5.94709 2.03069 2.43984 2.04713 2.34801C2.08436 2.14031 2.30227 1.87555 2.5111 1.78434C2.64126 1.72755 4.32832 1.71729 12.0386 1.72646L21.408 1.7376L21.5512 1.84446ZM11.6288 4.3076C11.5083 4.36725 11.3657 4.48965 11.3121 4.57961C11.2583 4.66963 10.6452 6.17127 9.94952 7.91662C9.25386 9.66198 8.67244 11.0903 8.65745 11.0907C8.64252 11.0911 8.23845 10.1878 7.75955 9.08334C7.07021 7.49355 6.85262 7.04084 6.71489 6.90993C6.408 6.61828 5.93019 6.61828 5.62568 6.90993C5.53078 7.00088 5.04996 7.68063 4.55722 8.42049C3.74218 9.64421 3.65937 9.78936 3.64033 10.027C3.62338 10.2382 3.64282 10.3227 3.74192 10.4683C3.9284 10.7425 4.17239 10.8841 4.45833 10.8841C4.82506 10.8841 4.9937 10.7381 5.5202 9.96447C5.77622 9.58824 6.00227 9.29731 6.02254 9.31794C6.04282 9.33851 6.4834 10.3465 7.00166 11.5578C7.55777 12.8578 7.99819 13.8181 8.0765 13.9016C8.4481 14.2974 9.12842 14.1875 9.3794 13.6911C9.43225 13.5867 10.0183 12.1486 10.6818 10.4955C11.3453 8.84237 11.8941 7.48251 11.9015 7.4736C11.9089 7.46474 12.5141 9.25352 13.2463 11.4487C14.5001 15.2076 14.5879 15.449 14.7544 15.5952C15.1496 15.9419 15.8182 15.8374 16.0482 15.393C16.09 15.3122 16.5574 13.9382 17.0868 12.3396C17.6162 10.7411 18.0595 9.43314 18.0719 9.43314C18.0843 9.43314 18.2596 9.67914 18.4614 9.97975C18.9355 10.6859 19.1965 10.8514 19.6454 10.7306C20.0397 10.6245 20.3227 10.1974 20.2512 9.81636C20.2308 9.70785 19.8512 9.08655 19.2953 8.25212C18.5193 7.08711 18.3429 6.8536 18.1814 6.77727C17.8415 6.61667 17.4728 6.67482 17.2035 6.93149C17.0881 7.04161 16.9033 7.54289 16.1927 9.67478C15.7144 11.1095 15.3113 12.2832 15.2968 12.283C15.2823 12.2828 14.7011 10.5863 14.0052 8.51294C13.3092 6.4396 12.693 4.6647 12.6359 4.56873C12.5259 4.38398 12.2011 4.20219 11.9776 4.20033C11.9063 4.19971 11.7494 4.248 11.6288 4.3076Z" fill="#current"/>
</svg>